<svg width="150" height="150" viewBox="0 0 150 150" fill="none" xmlns="http://www.w3.org/2000/svg">
<rect width="150" height="150" fill="#FF7272"/>
<path d="M46.2069 43.9379V34.1078C46.2069 33.6019 46.1707 33.12 46.0984 32.6622C46.0262 32.1804 45.8936 31.7708 45.7009 31.4335C45.5082 31.0962 45.2431 30.8311 44.9058 30.6384C44.5926 30.4215 44.171 30.3131 43.6409 30.3131C43.135 30.3131 42.6892 30.4215 42.3037 30.6384C41.9423 30.8552 41.6291 31.1443 41.3641 31.5057C41.1232 31.8671 40.9425 32.2888 40.822 32.7706C40.7015 33.2284 40.6413 33.7103 40.6413 34.2162V43.9379H34.7144V33.6741C34.7144 32.6381 34.5096 31.819 34.1 31.2166C33.6904 30.6143 33.0399 30.3131 32.1484 30.3131C31.2088 30.3131 30.474 30.6866 29.9439 31.4335C29.4379 32.1804 29.185 33.0959 29.185 34.1801V43.9379H23.2219V25.9402H28.9681V28.4339H29.0404C29.2572 28.0484 29.5223 27.6749 29.8355 27.3135C30.1728 26.9521 30.5703 26.6389 31.0281 26.3739C31.4859 26.0848 31.9918 25.8559 32.546 25.6872C33.1242 25.5186 33.7506 25.4342 34.4253 25.4342C35.7263 25.4342 36.8225 25.6993 37.714 26.2293C38.6295 26.7594 39.3403 27.5183 39.8462 28.5061C40.4486 27.5665 41.2196 26.8196 42.1592 26.2655C43.0988 25.7113 44.2433 25.4342 45.5925 25.4342C46.8212 25.4342 47.8452 25.6631 48.6644 26.1209C49.5076 26.5546 50.1822 27.1328 50.6882 27.8556C51.1942 28.5543 51.5556 29.3494 51.7724 30.2408C52.0133 31.1082 52.1338 31.9635 52.1338 32.8068V43.9379H46.2069ZM63.0418 20.194C63.0418 20.6517 62.9455 21.0854 62.7527 21.495C62.5841 21.8805 62.3431 22.2178 62.0299 22.5069C61.7408 22.796 61.3794 23.0249 60.9457 23.1936C60.5361 23.3622 60.1025 23.4466 59.6447 23.4466C58.681 23.4466 57.8738 23.1333 57.2233 22.5069C56.5728 21.8564 56.2475 21.0854 56.2475 20.194C56.2475 19.7603 56.3319 19.3507 56.5005 18.9652C56.6692 18.5556 56.9101 18.2063 57.2233 17.9171C57.5365 17.628 57.8979 17.3991 58.3075 17.2305C58.7171 17.0377 59.1628 16.9414 59.6447 16.9414C60.1025 16.9414 60.5361 17.0257 60.9457 17.1944C61.3794 17.363 61.7408 17.5919 62.0299 17.881C62.3431 18.1701 62.5841 18.5195 62.7527 18.9291C62.9455 19.3146 63.0418 19.7362 63.0418 20.194ZM56.6812 43.9379V25.9402H62.6082V43.9379H56.6812ZM43.2434 73.8668C43.2434 75.1196 43.0506 76.3243 42.6651 77.4807C42.2797 78.6372 41.7135 79.6612 40.9666 80.5526C40.2438 81.42 39.3523 82.1187 38.2922 82.6487C37.2321 83.1788 36.0275 83.4438 34.6782 83.4438C33.5699 83.4438 32.5219 83.227 31.5341 82.7933C30.5462 82.3355 29.7753 81.7212 29.2211 80.9502H29.1488V91.6114H23.2219V64.9402H28.8597V67.1447H28.9681C29.5223 66.4219 30.2812 65.7955 31.2449 65.2655C32.2328 64.7113 33.3892 64.4342 34.7144 64.4342C36.0154 64.4342 37.196 64.6872 38.2561 65.1932C39.3162 65.6991 40.2076 66.3858 40.9304 67.2532C41.6773 68.1205 42.2435 69.1324 42.629 70.2889C43.0386 71.4213 43.2434 72.6139 43.2434 73.8668ZM37.4971 73.8668C37.4971 73.2885 37.4008 72.7223 37.208 72.1682C37.0394 71.614 36.7743 71.1322 36.4129 70.7226C36.0756 70.2889 35.642 69.9396 35.1119 69.6745C34.5819 69.4095 33.9675 69.277 33.2688 69.277C32.5942 69.277 31.9918 69.4095 31.4618 69.6745C30.9317 69.9396 30.474 70.2889 30.0885 70.7226C29.7271 71.1563 29.4379 71.6502 29.2211 72.2043C29.0284 72.7585 28.932 73.3247 28.932 73.9029C28.932 74.4811 29.0284 75.0473 29.2211 75.6015C29.4379 76.1556 29.7271 76.6495 30.0885 77.0832C30.474 77.5169 30.9317 77.8662 31.4618 78.1313C31.9918 78.3963 32.5942 78.5288 33.2688 78.5288C33.9675 78.5288 34.5819 78.3963 35.1119 78.1313C35.642 77.8662 36.0756 77.5169 36.4129 77.0832C36.7743 76.6495 37.0394 76.1556 37.208 75.6015C37.4008 75.0232 37.4971 74.445 37.4971 73.8668ZM66.0558 73.8668C66.0558 75.3364 65.7908 76.6736 65.2608 77.8783C64.7307 79.0589 64.0079 80.0708 63.0924 80.914C62.1768 81.7332 61.1167 82.3717 59.9121 82.8294C58.7074 83.2872 57.4184 83.5161 56.0451 83.5161C54.6959 83.5161 53.4069 83.2872 52.1781 82.8294C50.9735 82.3717 49.9134 81.7332 48.9978 80.914C48.1064 80.0708 47.3956 79.0589 46.8656 77.8783C46.3355 76.6736 46.0705 75.3364 46.0705 73.8668C46.0705 72.3971 46.3355 71.0719 46.8656 69.8914C47.3956 68.7108 48.1064 67.7109 48.9978 66.8918C49.9134 66.0726 50.9735 65.4462 52.1781 65.0125C53.4069 64.5788 54.6959 64.362 56.0451 64.362C57.4184 64.362 58.7074 64.5788 59.9121 65.0125C61.1167 65.4462 62.1768 66.0726 63.0924 66.8918C64.0079 67.7109 64.7307 68.7108 65.2608 69.8914C65.7908 71.0719 66.0558 72.3971 66.0558 73.8668ZM60.3457 73.8668C60.3457 73.2885 60.2494 72.7223 60.0566 72.1682C59.8639 71.614 59.5868 71.1322 59.2254 70.7226C58.864 70.2889 58.4183 69.9396 57.8882 69.6745C57.3582 69.4095 56.7438 69.277 56.0451 69.277C55.3464 69.277 54.732 69.4095 54.202 69.6745C53.6719 69.9396 53.2262 70.2889 52.8648 70.7226C52.5275 71.1322 52.2625 71.614 52.0697 72.1682C51.9011 72.7223 51.8167 73.2885 51.8167 73.8668C51.8167 74.445 51.9011 75.0112 52.0697 75.5653C52.2625 76.1195 52.5395 76.6254 52.9009 77.0832C53.2623 77.5169 53.708 77.8662 54.2381 78.1313C54.7681 78.3963 55.3825 78.5288 56.0812 78.5288C56.7799 78.5288 57.3943 78.3963 57.9244 78.1313C58.4544 77.8662 58.9001 77.5169 59.2615 77.0832C59.6229 76.6254 59.888 76.1195 60.0566 75.5653C60.2494 75.0112 60.3457 74.445 60.3457 73.8668ZM81.4816 69.7829C81.2166 69.7107 80.9516 69.6625 80.6866 69.6384C80.4456 69.6143 80.2047 69.6022 79.9638 69.6022C79.1687 69.6022 78.4941 69.7468 77.9399 70.0359C77.4099 70.325 76.9762 70.6744 76.6389 71.084C76.3257 71.4936 76.0968 71.9393 75.9522 72.4212C75.8077 72.903 75.7354 73.3247 75.7354 73.6861V82.9379H69.8085V64.9402H75.5186V67.5423H75.5908C76.0486 66.6267 76.6991 65.8798 77.5424 65.3016C78.3857 64.7234 79.3614 64.4342 80.4697 64.4342C80.7107 64.4342 80.9395 64.4463 81.1564 64.4704C81.3973 64.4945 81.5901 64.5306 81.7346 64.5788L81.4816 69.7829ZM90.1467 69.3854V76.252C90.1467 77.0953 90.3033 77.7337 90.6166 78.1674C90.9539 78.577 91.5442 78.7818 92.3874 78.7818C92.6765 78.7818 92.9777 78.7577 93.2909 78.7095C93.6282 78.6613 93.9053 78.589 94.1221 78.4927L94.1944 82.8294C93.7848 82.974 93.2668 83.0945 92.6404 83.1908C92.014 83.3113 91.3875 83.3715 90.7611 83.3715C89.5565 83.3715 88.5445 83.227 87.7254 82.9379C86.9062 82.6247 86.2436 82.191 85.7377 81.6368C85.2558 81.0586 84.9065 80.384 84.6896 79.613C84.4728 78.8179 84.3644 77.9385 84.3644 76.9748V69.3854H81.4732V64.9402H84.3282V60.2059H90.1467V64.9402H94.3751V69.3854H90.1467ZM107.786 75.0955H107.027C106.376 75.0955 105.714 75.1317 105.039 75.2039C104.388 75.2521 103.798 75.3605 103.268 75.5292C102.762 75.6978 102.34 75.9508 102.003 76.2881C101.666 76.6013 101.497 77.023 101.497 77.553C101.497 77.8903 101.569 78.1794 101.714 78.4204C101.883 78.6613 102.087 78.8541 102.328 78.9986C102.569 79.1432 102.846 79.2516 103.16 79.3239C103.473 79.3721 103.774 79.3962 104.063 79.3962C105.268 79.3962 106.183 79.0709 106.81 78.4204C107.46 77.7458 107.786 76.8423 107.786 75.7099V75.0955ZM96.9074 67.3977C97.9676 66.3858 99.1963 65.6269 100.594 65.1209C102.015 64.6149 103.461 64.362 104.931 64.362C106.448 64.362 107.725 64.5547 108.761 64.9402C109.821 65.3016 110.677 65.8798 111.327 66.6749C111.978 67.4459 112.448 68.4337 112.737 69.6384C113.05 70.819 113.207 72.2284 113.207 73.8668V82.9379H107.786V81.0225H107.677C107.219 81.7693 106.521 82.3476 105.581 82.7572C104.665 83.1668 103.666 83.3715 102.581 83.3715C101.859 83.3715 101.112 83.2752 100.341 83.0824C99.5698 82.8897 98.859 82.5765 98.2085 82.1428C97.5821 81.7091 97.0641 81.1309 96.6545 80.4081C96.2449 79.6853 96.0401 78.7938 96.0401 77.7337C96.0401 76.4327 96.3894 75.3846 97.0881 74.5896C97.8109 73.7945 98.7265 73.1801 99.8348 72.7464C100.967 72.3127 102.22 72.0236 103.593 71.8791C104.967 71.7345 106.304 71.6622 107.605 71.6622V71.3731C107.605 70.4817 107.292 69.8311 106.665 69.4215C106.039 68.9879 105.268 68.771 104.352 68.771C103.509 68.771 102.69 68.9517 101.895 69.3131C101.124 69.6745 100.461 70.1082 99.9071 70.6142L96.9074 67.3977ZM116.618 75.8183V71.1201H125.798V75.8183H116.618ZM34.3891 97.989C34.1723 97.9168 33.9193 97.8565 33.6302 97.8083C33.3411 97.7602 33.0519 97.7361 32.7628 97.7361C32.2087 97.7361 31.7629 97.8324 31.4256 98.0252C31.0883 98.2179 30.8233 98.4829 30.6306 98.8203C30.4378 99.1335 30.3053 99.4949 30.233 99.9045C30.1607 100.314 30.1246 100.724 30.1246 101.133V102.94H34.1361V107.385H30.1246V120.938H24.1977V107.385H20.9089V102.94H24.1977V101.205C24.1977 100.097 24.3181 99.0491 24.5591 98.0613C24.8 97.0494 25.2096 96.17 25.7878 95.4231C26.3902 94.6521 27.1852 94.0498 28.1731 93.6161C29.185 93.1583 30.4378 92.9295 31.9316 92.9295C32.4376 92.9295 32.9315 92.9656 33.4133 93.0379C33.9193 93.0861 34.3771 93.1704 34.7867 93.2909L34.3891 97.989ZM55.468 111.867C55.468 113.336 55.203 114.674 54.6729 115.878C54.1429 117.059 53.4201 118.071 52.5045 118.914C51.589 119.733 50.5289 120.372 49.3242 120.829C48.1195 121.287 46.8306 121.516 45.4572 121.516C44.108 121.516 42.819 121.287 41.5903 120.829C40.3856 120.372 39.3255 119.733 38.41 118.914C37.5185 118.071 36.8078 117.059 36.2777 115.878C35.7477 114.674 35.4826 113.336 35.4826 111.867C35.4826 110.397 35.7477 109.072 36.2777 107.891C36.8078 106.711 37.5185 105.711 38.41 104.892C39.3255 104.073 40.3856 103.446 41.5903 103.012C42.819 102.579 44.108 102.362 45.4572 102.362C46.8306 102.362 48.1195 102.579 49.3242 103.012C50.5289 103.446 51.589 104.073 52.5045 104.892C53.4201 105.711 54.1429 106.711 54.6729 107.891C55.203 109.072 55.468 110.397 55.468 111.867ZM49.7579 111.867C49.7579 111.289 49.6615 110.722 49.4688 110.168C49.276 109.614 48.9989 109.132 48.6375 108.723C48.2761 108.289 47.8304 107.94 47.3004 107.675C46.7703 107.41 46.1559 107.277 45.4572 107.277C44.7585 107.277 44.1442 107.41 43.6141 107.675C43.084 107.94 42.6383 108.289 42.2769 108.723C41.9396 109.132 41.6746 109.614 41.4818 110.168C41.3132 110.722 41.2289 111.289 41.2289 111.867C41.2289 112.445 41.3132 113.011 41.4818 113.565C41.6746 114.119 41.9517 114.625 42.3131 115.083C42.6745 115.517 43.1202 115.866 43.6502 116.131C44.1803 116.396 44.7947 116.529 45.4934 116.529C46.1921 116.529 46.8065 116.396 47.3365 116.131C47.8666 115.866 48.3123 115.517 48.6737 115.083C49.0351 114.625 49.3001 114.119 49.4688 113.565C49.6615 113.011 49.7579 112.445 49.7579 111.867ZM59.2929 120.938V93.6161H65.2921V120.938H59.2929ZM76.4178 97.194C76.4178 97.6517 76.3214 98.0854 76.1287 98.495C75.9601 98.8805 75.7191 99.2178 75.4059 99.5069C75.1168 99.796 74.7554 100.025 74.3217 100.194C73.9121 100.362 73.4784 100.447 73.0207 100.447C72.0569 100.447 71.2498 100.133 70.5993 99.5069C69.9488 98.8564 69.6235 98.0854 69.6235 97.194C69.6235 96.7603 69.7079 96.3507 69.8765 95.9652C70.0452 95.5556 70.2861 95.2063 70.5993 94.9171C70.9125 94.628 71.2739 94.3991 71.6835 94.2305C72.0931 94.0377 72.5388 93.9414 73.0207 93.9414C73.4784 93.9414 73.9121 94.0257 74.3217 94.1944C74.7554 94.363 75.1168 94.5919 75.4059 94.881C75.7191 95.1701 75.9601 95.5195 76.1287 95.9291C76.3214 96.3146 76.4178 96.7362 76.4178 97.194ZM70.0572 120.938V102.94H75.9841V120.938H70.0572ZM99.7605 111.867C99.7605 113.336 99.4955 114.674 98.9654 115.878C98.4354 117.059 97.7126 118.071 96.7971 118.914C95.8815 119.733 94.8214 120.372 93.6167 120.829C92.4121 121.287 91.1231 121.516 89.7498 121.516C88.4005 121.516 87.1116 121.287 85.8828 120.829C84.6781 120.372 83.618 119.733 82.7025 118.914C81.811 118.071 81.1003 117.059 80.5702 115.878C80.0402 114.674 79.7752 113.336 79.7752 111.867C79.7752 110.397 80.0402 109.072 80.5702 107.891C81.1003 106.711 81.811 105.711 82.7025 104.892C83.618 104.073 84.6781 103.446 85.8828 103.012C87.1116 102.579 88.4005 102.362 89.7498 102.362C91.1231 102.362 92.4121 102.579 93.6167 103.012C94.8214 103.446 95.8815 104.073 96.7971 104.892C97.7126 105.711 98.4354 106.711 98.9654 107.891C99.4955 109.072 99.7605 110.397 99.7605 111.867ZM94.0504 111.867C94.0504 111.289 93.954 110.722 93.7613 110.168C93.5686 109.614 93.2915 109.132 92.9301 108.723C92.5687 108.289 92.123 107.94 91.5929 107.675C91.0629 107.41 90.4485 107.277 89.7498 107.277C89.0511 107.277 88.4367 107.41 87.9066 107.675C87.3766 107.94 86.9309 108.289 86.5695 108.723C86.2322 109.132 85.9671 109.614 85.7744 110.168C85.6057 110.722 85.5214 111.289 85.5214 111.867C85.5214 112.445 85.6057 113.011 85.7744 113.565C85.9671 114.119 86.2442 114.625 86.6056 115.083C86.967 115.517 87.4127 115.866 87.9428 116.131C88.4728 116.396 89.0872 116.529 89.7859 116.529C90.4846 116.529 91.099 116.396 91.629 116.131C92.1591 115.866 92.6048 115.517 92.9662 115.083C93.3276 114.625 93.5926 114.119 93.7613 113.565C93.954 113.011 94.0504 112.445 94.0504 111.867Z" fill="white"/>
</svg>
