<svg width="163" height="313" viewBox="0 0 163 313" fill="none" xmlns="http://www.w3.org/2000/svg">
<path fill-rule="evenodd" clip-rule="evenodd" d="M162.039 61.2765H0L8.30969 312.229L18.2812 312.229L22.436 106.149H139.603L143.757 312.229L154.56 312.229L162.039 61.2765Z" fill="#63518A"/>
<path d="M52.9805 42.5083C54.0839 37.572 58.4648 34.0623 63.5229 34.0623H95.1175C100.041 34.0623 104.342 37.3916 105.575 42.1581L111.866 66.4639C113.637 73.3034 108.473 79.9733 101.408 79.9733H58.0898C51.1734 79.9733 46.0386 73.5641 47.5474 66.8142L52.9805 42.5083Z" fill="#FA4444"/>
<circle cx="70.5322" cy="42.7044" r="2.70065" fill="white"/>
<circle cx="80.2548" cy="42.7044" r="2.70065" fill="white"/>
<circle cx="89.9773" cy="42.7044" r="2.70065" fill="white"/>
<circle cx="70.5322" cy="50.8063" r="2.70065" fill="white"/>
<circle cx="80.2548" cy="50.8063" r="2.70065" fill="white"/>
<circle cx="89.9773" cy="50.8063" r="2.70065" fill="white"/>
<circle cx="70.5322" cy="58.9083" r="2.70065" fill="white"/>
<circle cx="80.2548" cy="58.9083" r="2.70065" fill="white"/>
<circle cx="89.9773" cy="58.9083" r="2.70065" fill="white"/>
<path d="M118.334 38.6534C119.848 38.6534 122.224 38.5658 123.405 39.7936C124.78 41.2236 125.502 42.8421 126.061 44.7748C126.922 47.7559 128.885 51.8853 127.636 55.0973C126.909 56.9672 125.302 57.4295 123.525 57.768C120.931 58.262 116.069 57.5198 116.458 54.0171C116.68 52.0184 118.962 50.4291 120.779 49.8611C122.38 49.361 124.608 49.6807 126.286 49.726C128.049 49.7737 130.095 51.8461 130.907 53.2969C132.037 55.3171 131.837 57.4604 131.837 59.6884C131.837 62.0949 129.044 65.1575 126.856 65.9299C121.914 67.6743 117.123 68.0904 111.852 68.0904" stroke="#FA4444" stroke-width="2.16052" stroke-linecap="round" stroke-linejoin="round" stroke-dasharray="4.86 4.86"/>
<path d="M42.7885 44.3248C37.0952 44.3248 33.6954 37.9839 36.8461 33.2419L42.0675 25.3834C44.0696 22.3701 47.4472 20.559 51.0651 20.559H108.991C112.78 20.559 116.291 22.5437 118.246 25.7892L122.639 33.086C125.615 38.0275 122.056 44.3248 116.288 44.3248C113.076 44.3248 110.23 42.2572 109.237 39.2031L108.681 37.4955C107.357 33.4232 103.562 30.6663 99.2798 30.6663H60.6585C56.5284 30.6663 52.7597 33.0212 50.9492 36.7334L49.201 40.3178C48.0053 42.7694 45.5163 44.3248 42.7885 44.3248Z" fill="#FA4444"/>
<line x1="25.6177" y1="34.582" x2="15.8653" y2="35.8576" stroke="#190B36" stroke-width="2.85315" stroke-linecap="round"/>
<line x1="26.6493" y1="24.3838" x2="17.3438" y2="21.1989" stroke="#190B36" stroke-width="2.85315" stroke-linecap="round"/>
<line x1="33.9065" y1="19.0628" x2="29.7447" y2="10.1513" stroke="#190B36" stroke-width="2.85315" stroke-linecap="round"/>
<line x1="130.162" y1="15.7814" x2="136.647" y2="8.387" stroke="#190B36" stroke-width="2.85315" stroke-linecap="round"/>
<line x1="136.117" y1="24.1242" x2="145.21" y2="20.3759" stroke="#190B36" stroke-width="2.85315" stroke-linecap="round"/>
<line x1="134.176" y1="32.9113" x2="143.184" y2="36.86" stroke="#190B36" stroke-width="2.85315" stroke-linecap="round"/>
<path d="M59.5764 8.35655C59.461 8.1917 59.2879 8.0557 59.0571 7.94855C58.8263 7.83316 58.5914 7.77546 58.3524 7.77546C58.0804 7.77546 57.8413 7.83316 57.6353 7.94855C57.4292 8.0557 57.2561 8.19995 57.116 8.38128C56.9841 8.56261 56.8852 8.76867 56.8193 8.99946C56.7533 9.22201 56.7204 9.44867 56.7204 9.67946C56.7204 9.91025 56.7533 10.141 56.8193 10.3718C56.8935 10.5944 57.0006 10.7963 57.1407 10.9776C57.2809 11.159 57.4539 11.3073 57.66 11.4227C57.8743 11.5299 58.1216 11.5835 58.4018 11.5835C58.6326 11.5835 58.8634 11.5381 59.0942 11.4475C59.325 11.3568 59.5104 11.2249 59.6505 11.0518L60.5778 11.9915C60.3305 12.2552 60.0132 12.4613 59.6258 12.6096C59.2467 12.7498 58.8345 12.8198 58.3895 12.8198C57.9526 12.8198 57.5364 12.7498 57.1407 12.6096C56.7533 12.4695 56.4113 12.2635 56.1145 11.9915C55.8261 11.7195 55.5953 11.3898 55.4222 11.0024C55.2573 10.615 55.1749 10.174 55.1749 9.67946C55.1749 9.2014 55.2573 8.76867 55.4222 8.38128C55.5953 7.99388 55.8261 7.66419 56.1145 7.39219C56.403 7.12019 56.7368 6.91 57.116 6.76164C57.5034 6.61328 57.9155 6.5391 58.3524 6.5391C58.7892 6.5391 59.2096 6.62152 59.6135 6.78637C60.0256 6.95122 60.3512 7.17788 60.5902 7.46637L59.5764 8.35655ZM61.2118 9.65473C61.2118 9.18492 61.2943 8.76043 61.4591 8.38128C61.6322 7.99388 61.863 7.66419 62.1515 7.39219C62.44 7.12019 62.782 6.91 63.1777 6.76164C63.5733 6.61328 63.9937 6.5391 64.4388 6.5391C64.8838 6.5391 65.3042 6.61328 65.6998 6.76164C66.0955 6.91 66.4375 7.12019 66.726 7.39219C67.0145 7.66419 67.2412 7.99388 67.406 8.38128C67.5791 8.76043 67.6657 9.18492 67.6657 9.65473C67.6657 10.1246 67.5791 10.5532 67.406 10.9406C67.2412 11.3279 67.0145 11.6618 66.726 11.942C66.4375 12.214 66.0955 12.4283 65.6998 12.5849C65.3042 12.7415 64.8838 12.8198 64.4388 12.8198C63.9937 12.8198 63.5733 12.7415 63.1777 12.5849C62.782 12.4283 62.44 12.214 62.1515 11.942C61.863 11.6618 61.6322 11.3279 61.4591 10.9406C61.2943 10.5532 61.2118 10.1246 61.2118 9.65473ZM62.7202 9.65473C62.7202 9.88552 62.7532 10.1163 62.8191 10.3471C62.8933 10.5779 63.0005 10.7839 63.1406 10.9653C63.2807 11.1466 63.4579 11.295 63.6722 11.4104C63.8865 11.5258 64.142 11.5835 64.4388 11.5835C64.7355 11.5835 64.991 11.5258 65.2053 11.4104C65.4196 11.295 65.5968 11.1466 65.7369 10.9653C65.8771 10.7839 65.9801 10.5779 66.046 10.3471C66.1202 10.1163 66.1573 9.88552 66.1573 9.65473C66.1573 9.42395 66.1202 9.19728 66.046 8.97473C65.9801 8.74395 65.8771 8.53788 65.7369 8.35655C65.5968 8.17522 65.4196 8.03098 65.2053 7.92382C64.991 7.80843 64.7355 7.75073 64.4388 7.75073C64.142 7.75073 63.8865 7.80843 63.6722 7.92382C63.4579 8.03098 63.2807 8.17522 63.1406 8.35655C63.0005 8.53788 62.8933 8.74395 62.8191 8.97473C62.7532 9.19728 62.7202 9.42395 62.7202 9.65473ZM69.1042 6.71219H70.5137V7.66419H70.5384C70.6703 7.36746 70.8969 7.10782 71.2184 6.88528C71.5481 6.65449 71.9355 6.5391 72.3806 6.5391C72.768 6.5391 73.0977 6.60916 73.3697 6.74928C73.6499 6.88116 73.8766 7.05837 74.0497 7.28091C74.231 7.50346 74.3629 7.75898 74.4453 8.04746C74.5277 8.33595 74.5689 8.63267 74.5689 8.93764V12.6467H73.0853V9.35801C73.0853 9.18492 73.0729 9.00358 73.0482 8.81401C73.0235 8.62443 72.9699 8.45546 72.8875 8.3071C72.805 8.15049 72.6897 8.02273 72.5413 7.92382C72.4012 7.82491 72.2116 7.77546 71.9726 7.77546C71.7335 7.77546 71.5275 7.82491 71.3544 7.92382C71.1813 8.01449 71.037 8.13401 70.9217 8.28237C70.8145 8.43073 70.7321 8.60382 70.6744 8.80164C70.6167 8.99122 70.5878 9.18492 70.5878 9.38273V12.6467H69.1042V6.71219ZM75.4471 7.8991V6.71219H76.4857V4.99364H77.9446V6.71219H79.4282V7.8991H77.9446V10.6562C77.9446 10.9199 77.9899 11.1384 78.0806 11.3115C78.1795 11.4846 78.3938 11.5711 78.7235 11.5711C78.8224 11.5711 78.9296 11.5629 79.045 11.5464C79.1603 11.5216 79.2634 11.4887 79.354 11.4475L79.4035 12.6096C79.2716 12.6591 79.115 12.6962 78.9337 12.7209C78.7523 12.7539 78.5793 12.7704 78.4144 12.7704C78.0188 12.7704 77.6973 12.7168 77.45 12.6096C77.2028 12.4943 77.005 12.3418 76.8566 12.1522C76.7165 11.9544 76.6176 11.7318 76.5599 11.4846C76.5104 11.229 76.4857 10.957 76.4857 10.6686V7.8991H75.4471ZM84.1863 11.8926H84.1492C84.0008 12.1563 83.7618 12.3747 83.4321 12.5478C83.1024 12.7127 82.7274 12.7951 82.307 12.7951C82.068 12.7951 81.8166 12.7621 81.5528 12.6962C81.2973 12.6385 81.0583 12.5396 80.8358 12.3995C80.6214 12.2511 80.4401 12.0615 80.2918 11.8307C80.1516 11.5917 80.0816 11.2991 80.0816 10.9529C80.0816 10.5078 80.2052 10.1534 80.4525 9.88964C80.708 9.62589 81.0336 9.42395 81.4292 9.28382C81.8248 9.1437 82.2617 9.05304 82.7398 9.01182C83.2261 8.96237 83.7 8.93764 84.1616 8.93764V8.78928C84.1616 8.41837 84.0256 8.14637 83.7536 7.97328C83.4898 7.79194 83.1725 7.70128 82.8016 7.70128C82.4884 7.70128 82.1875 7.76722 81.899 7.8991C81.6105 8.03098 81.3715 8.1917 81.1819 8.38128L80.4154 7.47873C80.7533 7.16552 81.1407 6.93061 81.5776 6.774C82.0227 6.6174 82.4719 6.5391 82.9252 6.5391C83.4527 6.5391 83.8854 6.61328 84.2234 6.76164C84.5696 6.91 84.8416 7.1037 85.0394 7.34273C85.2372 7.58176 85.3732 7.84964 85.4474 8.14637C85.5298 8.4431 85.571 8.73982 85.571 9.03655V12.6467H84.1863V11.8926ZM84.1616 9.9391H83.8278C83.5887 9.9391 83.3373 9.95146 83.0736 9.97619C82.8098 9.99267 82.5667 10.038 82.3441 10.1122C82.1216 10.1781 81.9361 10.277 81.7878 10.4089C81.6394 10.5326 81.5652 10.7056 81.5652 10.9282C81.5652 11.0683 81.5941 11.1878 81.6518 11.2867C81.7177 11.3774 81.8001 11.4516 81.899 11.5093C81.9979 11.567 82.1092 11.6082 82.2328 11.6329C82.3565 11.6576 82.4801 11.67 82.6038 11.67C83.1148 11.67 83.5022 11.534 83.7659 11.262C84.0297 10.99 84.1616 10.6191 84.1616 10.1493V9.9391ZM91.3548 8.35655C91.2394 8.1917 91.0663 8.0557 90.8355 7.94855C90.6047 7.83316 90.3698 7.77546 90.1308 7.77546C89.8588 7.77546 89.6198 7.83316 89.4137 7.94855C89.2076 8.0557 89.0346 8.19995 88.8944 8.38128C88.7626 8.56261 88.6636 8.76867 88.5977 8.99946C88.5318 9.22201 88.4988 9.44867 88.4988 9.67946C88.4988 9.91025 88.5318 10.141 88.5977 10.3718C88.6719 10.5944 88.779 10.7963 88.9192 10.9776C89.0593 11.159 89.2324 11.3073 89.4384 11.4227C89.6527 11.5299 89.9 11.5835 90.1803 11.5835C90.411 11.5835 90.6418 11.5381 90.8726 11.4475C91.1034 11.3568 91.2889 11.2249 91.429 11.0518L92.3563 11.9915C92.109 12.2552 91.7916 12.4613 91.4043 12.6096C91.0251 12.7498 90.613 12.8198 90.1679 12.8198C89.731 12.8198 89.3148 12.7498 88.9192 12.6096C88.5318 12.4695 88.1897 12.2635 87.893 11.9915C87.6045 11.7195 87.3737 11.3898 87.2006 11.0024C87.0358 10.615 86.9533 10.174 86.9533 9.67946C86.9533 9.2014 87.0358 8.76867 87.2006 8.38128C87.3737 7.99388 87.6045 7.66419 87.893 7.39219C88.1815 7.12019 88.5153 6.91 88.8944 6.76164C89.2818 6.61328 89.6939 6.5391 90.1308 6.5391C90.5676 6.5391 90.988 6.62152 91.3919 6.78637C91.804 6.95122 92.1296 7.17788 92.3686 7.46637L91.3548 8.35655ZM92.4834 7.8991V6.71219H93.5219V4.99364H94.9808V6.71219H96.4645V7.8991H94.9808V10.6562C94.9808 10.9199 95.0262 11.1384 95.1168 11.3115C95.2157 11.4846 95.43 11.5711 95.7597 11.5711C95.8586 11.5711 95.9658 11.5629 96.0812 11.5464C96.1966 11.5216 96.2996 11.4887 96.3903 11.4475L96.4397 12.6096C96.3079 12.6591 96.1512 12.6962 95.9699 12.7209C95.7886 12.7539 95.6155 12.7704 95.4506 12.7704C95.055 12.7704 94.7335 12.7168 94.4863 12.6096C94.239 12.4943 94.0412 12.3418 93.8928 12.1522C93.7527 11.9544 93.6538 11.7318 93.5961 11.4846C93.5466 11.229 93.5219 10.957 93.5219 10.6686V7.8991H92.4834ZM97.192 9.65473C97.192 9.18492 97.2744 8.76043 97.4393 8.38128C97.6123 7.99388 97.8431 7.66419 98.1316 7.39219C98.4201 7.12019 98.7622 6.91 99.1578 6.76164C99.5534 6.61328 99.9738 6.5391 100.419 6.5391C100.864 6.5391 101.284 6.61328 101.68 6.76164C102.076 6.91 102.418 7.12019 102.706 7.39219C102.995 7.66419 103.221 7.99388 103.386 8.38128C103.559 8.76043 103.646 9.18492 103.646 9.65473C103.646 10.1246 103.559 10.5532 103.386 10.9406C103.221 11.3279 102.995 11.6618 102.706 11.942C102.418 12.214 102.076 12.4283 101.68 12.5849C101.284 12.7415 100.864 12.8198 100.419 12.8198C99.9738 12.8198 99.5534 12.7415 99.1578 12.5849C98.7622 12.4283 98.4201 12.214 98.1316 11.942C97.8431 11.6618 97.6123 11.3279 97.4393 10.9406C97.2744 10.5532 97.192 10.1246 97.192 9.65473ZM98.7003 9.65473C98.7003 9.88552 98.7333 10.1163 98.7993 10.3471C98.8734 10.5779 98.9806 10.7839 99.1207 10.9653C99.2608 11.1466 99.438 11.295 99.6523 11.4104C99.8667 11.5258 100.122 11.5835 100.419 11.5835C100.716 11.5835 100.971 11.5258 101.185 11.4104C101.4 11.295 101.577 11.1466 101.717 10.9653C101.857 10.7839 101.96 10.5779 102.026 10.3471C102.1 10.1163 102.137 9.88552 102.137 9.65473C102.137 9.42395 102.1 9.19728 102.026 8.97473C101.96 8.74395 101.857 8.53788 101.717 8.35655C101.577 8.17522 101.4 8.03098 101.185 7.92382C100.971 7.80843 100.716 7.75073 100.419 7.75073C100.122 7.75073 99.8667 7.80843 99.6523 7.92382C99.438 8.03098 99.2608 8.17522 99.1207 8.35655C98.9806 8.53788 98.8734 8.74395 98.7993 8.97473C98.7333 9.19728 98.7003 9.42395 98.7003 9.65473Z" fill="#190B36"/>
</svg>
