<svg width="152" height="171" viewBox="0 0 152 171" fill="none" xmlns="http://www.w3.org/2000/svg">
<g clip-path="url(#clip0)">
<rect width="149.574" height="149.574" transform="translate(2.09644)" fill="#FFAFAF"/>
<rect x="59.2808" y="89.6224" width="29.072" height="55.761" fill="#FFF3C8"/>
<path d="M106.106 69.1684C106.106 94.3758 94.1954 117.957 73.9866 117.957C53.7778 117.957 44.307 94.7823 41.0544 71.2013C41.0544 44.7743 53.7778 32.1706 73.9866 32.1706C94.1954 32.1706 106.106 46.7142 106.106 69.1684Z" fill="#FFF3C8"/>
<path d="M115.042 45.7762C131.008 54.8049 104.377 78.7217 92.5299 54.8049C79.8755 75.305 63.9536 68.036 59.2809 54.8049C36.8923 75.7931 25.9195 57.4526 33.3067 47.2059C24.0592 42.8131 21.5438 28.1423 42.1236 28.1423C42.1236 6.45748 71.1956 10.9105 71.1956 18.1339C78.3444 1.45329 112.095 13.5962 104.377 26.4953C125.471 22.9552 129.34 41.7251 115.042 45.7762Z" fill="#190B36"/>
<path fill-rule="evenodd" clip-rule="evenodd" d="M109.026 68.3941C111.742 69.8917 113.277 72.0826 113.277 75.0617C113.277 78.1326 111.646 81.5551 108.832 84.2303C106.031 86.8927 102.129 88.7426 97.7088 88.7426C93.2726 88.7426 88.8785 86.8798 85.5904 84.1845C82.277 81.4684 80.2539 78.0538 80.2539 75.0617C80.2539 72.1864 82.1405 69.969 85.3975 68.42C88.6562 66.8702 93.104 66.0983 97.7088 66.0983C102.316 66.0983 106.265 66.8712 109.026 68.3941ZM109.938 66.7417C106.788 65.0047 102.481 64.2113 97.7088 64.2113C92.9341 64.2113 88.1827 65.0058 84.587 66.7159C81.9709 67.96 79.8703 69.7464 78.9189 72.1278C78.6236 71.8873 78.2989 71.6837 77.9607 71.515C76.9331 71.0022 75.7042 70.7664 74.5242 70.7702C73.3466 70.7739 72.1367 71.0166 71.1556 71.543C70.842 71.7113 70.5437 71.9139 70.277 72.1521C69.3301 69.7589 67.2242 67.9649 64.5995 66.7166C61.0038 65.0065 56.2524 64.212 51.4777 64.212C46.7054 64.212 42.3985 65.0054 39.249 66.7424C36.0535 68.5048 34.0227 71.2673 34.0227 75.0624C34.0227 78.7656 35.9581 82.6553 39.0546 85.5987C42.1646 88.5551 46.5188 90.6303 51.4777 90.6303C56.421 90.6303 61.2262 88.5679 64.7924 85.6446C68.3334 82.742 70.8197 78.8443 70.8197 75.0624C70.8197 74.846 70.8116 74.6333 70.7957 74.4241L71.0259 74.456C71.0922 73.9787 71.4104 73.5478 72.0478 73.2058C72.6929 72.8597 73.5809 72.6602 74.5301 72.6572C75.4769 72.6542 76.4038 72.8471 77.1182 73.2035C77.8078 73.5475 78.2264 74.0015 78.3841 74.5183C78.3727 74.6969 78.3668 74.878 78.3668 75.0617C78.3668 78.8436 80.8531 82.7412 84.3941 85.6439C87.9604 88.5672 92.7655 90.6296 97.7088 90.6296C102.668 90.6296 107.022 88.5544 110.132 85.598C113.228 82.6546 115.164 78.7649 115.164 75.0617C115.164 71.2665 113.133 68.5041 109.938 66.7417ZM40.1603 68.3948C37.4449 69.8924 35.9097 72.0833 35.9097 75.0624C35.9097 78.1333 37.5403 81.5558 40.3547 84.231C43.1554 86.8934 47.057 88.7433 51.4777 88.7433C55.9139 88.7433 60.308 86.8805 63.5961 84.1852C66.9095 81.4691 68.9327 78.0545 68.9327 75.0624C68.9327 72.1871 67.046 69.9697 63.789 68.4207C60.5304 66.8709 56.0826 66.099 51.4777 66.099C46.8704 66.099 42.9215 66.872 40.1603 68.3948Z" fill="#FF2424"/>
<ellipse cx="90.9743" cy="75.1728" rx="2.62125" ry="4.28931" fill="#190B36"/>
<ellipse cx="58.0898" cy="75.1728" rx="2.62125" ry="4.28931" fill="#190B36"/>
<path d="M69.7659 88.0408C69.8274 90.9955 72.0262 91.1386 74.5318 91.1386" stroke="#190B36" stroke-width="1.42977" stroke-linecap="round" stroke-linejoin="round"/>
<path d="M63.6664 64.9418C61.4302 62.1194 58.011 62.8334 54.8958 63.719" stroke="#190B36" stroke-width="1.90636" stroke-linecap="round" stroke-linejoin="round"/>
<path d="M84.908 65.008C88.052 63.0091 92.4286 64.3749 95.8434 65.0819" stroke="#190B36" stroke-width="1.90636" stroke-linecap="round" stroke-linejoin="round"/>
<path d="M68.8127 100.67C71.197 101.601 73.0503 101.624 75.6042 101.624C76.972 101.624 79.7568 101.897 80.4892 100.432" stroke="#190B36" stroke-width="1.90636" stroke-linecap="round" stroke-linejoin="round"/>
<path d="M11.4126 149.144C11.4126 142.183 16.4257 136.234 23.2857 135.054L53.4609 129.861C56.786 129.289 60.2064 129.911 63.117 131.618L65.7037 133.135C69.9136 135.603 75.0915 135.753 79.4377 133.534L84.1141 131.146C86.873 129.737 90.0149 129.262 93.0669 129.793L123.202 135.036C130.05 136.227 135.049 142.171 135.049 149.122V218.342C135.049 226.238 128.648 232.64 120.751 232.64H25.7103C17.8139 232.64 11.4126 226.238 11.4126 218.342V149.144Z" fill="#FF2424"/>
</g>
<defs>
<clipPath id="clip0">
<rect width="149.574" height="149.574" fill="white" transform="translate(2.09644)"/>
</clipPath>
</defs>
</svg>
