<svg width="152" height="171" viewBox="0 0 152 171" fill="none" xmlns="http://www.w3.org/2000/svg">
<g clip-path="url(#clip0)">
<rect width="149.574" height="149.574" transform="translate(2.09644)" fill="#FFAFAF"/>
<rect x="59.2808" y="89.6224" width="29.072" height="55.761" fill="#FFF3C8"/>
<path d="M106.106 69.1684C106.106 94.3758 94.1954 117.957 73.9866 117.957C53.7778 117.957 44.307 94.7823 41.0544 71.2013C41.0544 44.7743 53.7778 32.1706 73.9866 32.1706C94.1954 32.1706 106.106 46.7142 106.106 69.1684Z" fill="#FFF3C8"/>
<path d="M115.042 45.7762C131.008 54.8049 104.377 78.7217 92.5299 54.8049C79.8755 75.305 63.9536 68.036 59.2809 54.8049C36.8923 75.7931 25.9195 57.4526 33.3067 47.2059C24.0592 42.8131 21.5438 28.1423 42.1236 28.1423C42.1236 6.45748 71.1956 10.9105 71.1956 18.1339C78.3444 1.45329 112.095 13.5962 104.377 26.4953C125.471 22.9552 129.34 41.7251 115.042 45.7762Z" fill="#190B36"/>
<path fill-rule="evenodd" clip-rule="evenodd" d="M109.026 68.3941C111.742 69.8917 113.277 72.0826 113.277 75.0617C113.277 78.1326 111.646 81.5551 108.832 84.2303C106.031 86.8927 102.129 88.7426 97.7088 88.7426C93.2726 88.7426 88.8785 86.8798 85.5904 84.1845C82.277 81.4684 80.2539 78.0538 80.2539 75.0617C80.2539 72.1864 82.1405 69.969 85.3975 68.42C88.6562 66.8702 93.104 66.0983 97.7088 66.0983C102.316 66.0983 106.265 66.8712 109.026 68.3941ZM109.938 66.7417C106.788 65.0047 102.481 64.2113 97.7088 64.2113C92.9341 64.2113 88.1827 65.0058 84.587 66.7159C81.9709 67.96 79.8703 69.7464 78.9189 72.1278C78.6236 71.8873 78.2989 71.6837 77.9607 71.515C76.9331 71.0022 75.7042 70.7664 74.5242 70.7702C73.3466 70.7739 72.1367 71.0166 71.1556 71.543C70.842 71.7113 70.5437 71.9139 70.277 72.1521C69.3301 69.7589 67.2242 67.9649 64.5995 66.7166C61.0038 65.0065 56.2524 64.212 51.4777 64.212C46.7054 64.212 42.3985 65.0054 39.249 66.7424C36.0535 68.5048 34.0227 71.2673 34.0227 75.0624C34.0227 78.7656 35.9581 82.6553 39.0546 85.5987C42.1646 88.5551 46.5188 90.6303 51.4777 90.6303C56.421 90.6303 61.2262 88.5679 64.7924 85.6446C68.3334 82.742 70.8197 78.8443 70.8197 75.0624C70.8197 74.846 70.8116 74.6333 70.7957 74.4241L71.0259 74.456C71.0922 73.9787 71.4104 73.5478 72.0478 73.2058C72.6929 72.8597 73.5809 72.6602 74.5301 72.6572C75.4769 72.6542 76.4038 72.8471 77.1182 73.2035C77.8078 73.5475 78.2264 74.0015 78.3841 74.5183C78.3727 74.6969 78.3668 74.878 78.3668 75.0617C78.3668 78.8436 80.8531 82.7412 84.3941 85.6439C87.9604 88.5672 92.7655 90.6296 97.7088 90.6296C102.668 90.6296 107.022 88.5544 110.132 85.598C113.228 82.6546 115.164 78.7649 115.164 75.0617C115.164 71.2665 113.133 68.5041 109.938 66.7417ZM40.1603 68.3948C37.4449 69.8924 35.9097 72.0833 35.9097 75.0624C35.9097 78.1333 37.5403 81.5558 40.3547 84.231C43.1554 86.8934 47.057 88.7433 51.4777 88.7433C55.9139 88.7433 60.308 86.8805 63.5961 84.1852C66.9095 81.4691 68.9327 78.0545 68.9327 75.0624C68.9327 72.1871 67.046 69.9697 63.789 68.4207C60.5304 66.8709 56.0826 66.099 51.4777 66.099C46.8704 66.099 42.9215 66.872 40.1603 68.3948Z" fill="#FF2424"/>
<ellipse cx="90.9743" cy="75.1728" rx="2.62125" ry="4.28931" fill="#190B36"/>
<ellipse cx="58.0898" cy="75.1728" rx="2.62125" ry="4.28931" fill="#190B36"/>
<path d="M69.7659 88.0408C69.8274 90.9955 72.0262 91.1386 74.5318 91.1386" stroke="#190B36" stroke-width="1.42977" stroke-linecap="round" stroke-linejoin="round"/>
<path d="M63.6664 64.9418C61.4302 62.1194 58.011 62.8334 54.8958 63.719" stroke="#190B36" stroke-width="1.90636" stroke-linecap="round" stroke-linejoin="round"/>
<path d="M84.908 65.008C88.052 63.0091 92.4286 64.3749 95.8434 65.0819" stroke="#190B36" stroke-width="1.90636" stroke-linecap="round" stroke-linejoin="round"/>
<path d="M68.8127 100.67C71.197 101.601 73.0503 101.624 75.6042 101.624C76.972 101.624 79.7568 101.897 80.4892 100.432" stroke="#190B36" stroke-width="1.90636" stroke-linecap="round" stroke-linejoin="round"/>
<path d="M11.4126 149.144C11.4126 142.183 16.4257 136.234 23.2857 135.054L53.4609 129.861C56.786 129.289 60.2064 129.911 63.117 131.618L65.7037 133.135C69.9136 135.603 75.0915 135.753 79.4377 133.534L84.1141 131.146C86.873 129.737 90.0149 129.262 93.0669 129.793L123.202 135.036C130.05 136.227 135.049 142.171 135.049 149.122V218.342C135.049 226.238 128.648 232.64 120.751 232.64H25.7103C17.8139 232.64 11.4126 226.238 11.4126 218.342V149.144Z" fill="#FF2424"/>
</g>
<line x1="1.42657" y1="160.836" x2="36.6154" y2="160.836" stroke="#190B36" stroke-width="2.85315" stroke-linecap="round"/>
<line x1="113.65" y1="160.836" x2="148.839" y2="160.836" stroke="#190B36" stroke-width="2.85315" stroke-linecap="round"/>
<path d="M53.9633 161.351C53.8314 161.178 53.6501 161.029 53.4193 160.906C53.1885 160.774 52.9371 160.708 52.6651 160.708C52.4261 160.708 52.2076 160.757 52.0098 160.856C51.812 160.955 51.7131 161.12 51.7131 161.351C51.7131 161.581 51.8202 161.746 52.0345 161.845C52.2571 161.936 52.5785 162.031 52.9989 162.13C53.2215 162.179 53.444 162.245 53.6665 162.327C53.8973 162.41 54.1034 162.521 54.2847 162.661C54.4743 162.793 54.6268 162.962 54.7422 163.168C54.8576 163.366 54.9153 163.609 54.9153 163.898C54.9153 164.26 54.8452 164.569 54.7051 164.825C54.5732 165.072 54.3919 165.274 54.1611 165.431C53.9385 165.587 53.6748 165.699 53.3698 165.764C53.0731 165.839 52.764 165.876 52.4425 165.876C51.981 165.876 51.5318 165.793 51.0949 165.628C50.6581 165.455 50.2954 165.212 50.0069 164.899L50.9836 163.984C51.1485 164.198 51.3628 164.376 51.6265 164.516C51.8903 164.656 52.1829 164.726 52.5044 164.726C52.6115 164.726 52.7187 164.714 52.8258 164.689C52.9412 164.664 53.0442 164.627 53.1349 164.578C53.2338 164.52 53.3121 164.446 53.3698 164.355C53.4275 164.264 53.4564 164.153 53.4564 164.021C53.4564 163.774 53.341 163.597 53.1102 163.49C52.8876 163.382 52.5497 163.275 52.0964 163.168C51.8738 163.119 51.6554 163.057 51.4411 162.983C51.235 162.9 51.0496 162.797 50.8847 162.674C50.7199 162.542 50.588 162.381 50.4891 162.191C50.3902 162.002 50.3407 161.767 50.3407 161.487C50.3407 161.157 50.4067 160.873 50.5385 160.634C50.6787 160.395 50.86 160.201 51.0825 160.052C51.3051 159.896 51.5565 159.78 51.8367 159.706C52.117 159.632 52.4055 159.595 52.7022 159.595C53.1308 159.595 53.547 159.669 53.9509 159.818C54.363 159.966 54.6886 160.193 54.9276 160.498L53.9633 161.351ZM55.8591 162.711C55.8591 162.241 55.9415 161.816 56.1063 161.437C56.2794 161.05 56.5102 160.72 56.7987 160.448C57.0872 160.176 57.4292 159.966 57.8249 159.818C58.2205 159.669 58.6409 159.595 59.086 159.595C59.5311 159.595 59.9514 159.669 60.3471 159.818C60.7427 159.966 61.0848 160.176 61.3732 160.448C61.6617 160.72 61.8884 161.05 62.0532 161.437C62.2263 161.816 62.3129 162.241 62.3129 162.711C62.3129 163.18 62.2263 163.609 62.0532 163.996C61.8884 164.384 61.6617 164.718 61.3732 164.998C61.0848 165.27 60.7427 165.484 60.3471 165.641C59.9514 165.797 59.5311 165.876 59.086 165.876C58.6409 165.876 58.2205 165.797 57.8249 165.641C57.4292 165.484 57.0872 165.27 56.7987 164.998C56.5102 164.718 56.2794 164.384 56.1063 163.996C55.9415 163.609 55.8591 163.18 55.8591 162.711ZM57.3674 162.711C57.3674 162.941 57.4004 163.172 57.4663 163.403C57.5405 163.634 57.6477 163.84 57.7878 164.021C57.9279 164.203 58.1051 164.351 58.3194 164.466C58.5337 164.582 58.7892 164.639 59.086 164.639C59.3827 164.639 59.6382 164.582 59.8525 164.466C60.0668 164.351 60.244 164.203 60.3842 164.021C60.5243 163.84 60.6273 163.634 60.6932 163.403C60.7674 163.172 60.8045 162.941 60.8045 162.711C60.8045 162.48 60.7674 162.253 60.6932 162.031C60.6273 161.8 60.5243 161.594 60.3842 161.412C60.244 161.231 60.0668 161.087 59.8525 160.98C59.6382 160.864 59.3827 160.807 59.086 160.807C58.7892 160.807 58.5337 160.864 58.3194 160.98C58.1051 161.087 57.9279 161.231 57.7878 161.412C57.6477 161.594 57.5405 161.8 57.4663 162.031C57.4004 162.253 57.3674 162.48 57.3674 162.711ZM65.2598 156.356V160.522H65.2969C65.3711 160.423 65.4658 160.32 65.5812 160.213C65.6966 160.106 65.8326 160.007 65.9892 159.916C66.1541 159.826 66.3437 159.752 66.558 159.694C66.7723 159.628 67.0154 159.595 67.2874 159.595C67.7078 159.595 68.0952 159.677 68.4496 159.842C68.804 159.999 69.109 160.217 69.3645 160.498C69.62 160.778 69.8178 161.107 69.958 161.487C70.0981 161.866 70.1681 162.274 70.1681 162.711C70.1681 163.147 70.0981 163.56 69.958 163.947C69.8261 164.326 69.6324 164.66 69.3769 164.948C69.1296 165.229 68.8246 165.455 68.462 165.628C68.1075 165.793 67.7037 165.876 67.2503 165.876C66.83 165.876 66.4343 165.785 66.0634 165.604C65.7007 165.422 65.4164 165.159 65.2103 164.812H65.1856V165.703H63.7761V156.356H65.2598ZM68.6598 162.711C68.6598 162.48 68.6227 162.253 68.5485 162.031C68.4826 161.8 68.3795 161.594 68.2394 161.412C68.0993 161.231 67.9221 161.087 67.7078 160.98C67.4935 160.864 67.2421 160.807 66.9536 160.807C66.6816 160.807 66.4384 160.864 66.2241 160.98C66.0098 161.095 65.8244 161.243 65.6678 161.425C65.5194 161.606 65.404 161.812 65.3216 162.043C65.2474 162.274 65.2103 162.505 65.2103 162.735C65.2103 162.966 65.2474 163.197 65.3216 163.428C65.404 163.65 65.5194 163.852 65.6678 164.034C65.8244 164.215 66.0098 164.363 66.2241 164.479C66.4384 164.586 66.6816 164.639 66.9536 164.639C67.2421 164.639 67.4935 164.582 67.7078 164.466C67.9221 164.351 68.0993 164.203 68.2394 164.021C68.3795 163.84 68.4826 163.634 68.5485 163.403C68.6227 163.172 68.6598 162.941 68.6598 162.711ZM71.5994 159.768H73.0212V160.757H73.046C73.2108 160.411 73.4416 160.131 73.7383 159.916C74.0351 159.702 74.3813 159.595 74.7769 159.595C74.8346 159.595 74.8964 159.599 74.9623 159.607C75.0283 159.607 75.086 159.616 75.1354 159.632V160.992C75.0365 160.967 74.95 160.951 74.8758 160.943C74.8099 160.934 74.7439 160.93 74.678 160.93C74.34 160.93 74.068 160.992 73.862 161.116C73.6559 161.239 73.4952 161.388 73.3798 161.561C73.2644 161.734 73.1861 161.911 73.1449 162.092C73.1037 162.274 73.0831 162.418 73.0831 162.525V165.703H71.5994V159.768ZM80.0646 162.142C80.0646 161.952 80.0357 161.771 79.978 161.598C79.9286 161.425 79.8461 161.272 79.7307 161.14C79.6154 161.009 79.467 160.906 79.2857 160.831C79.1126 160.749 78.9065 160.708 78.6675 160.708C78.2224 160.708 77.8432 160.844 77.53 161.116C77.225 161.379 77.0561 161.722 77.0231 162.142H80.0646ZM81.5482 162.81C81.5482 162.875 81.5482 162.941 81.5482 163.007C81.5482 163.073 81.5441 163.139 81.5358 163.205H77.0231C77.0396 163.419 77.0932 163.617 77.1838 163.799C77.2827 163.972 77.4105 164.124 77.5671 164.256C77.7237 164.38 77.9009 164.479 78.0987 164.553C78.2966 164.627 78.5026 164.664 78.7169 164.664C79.0878 164.664 79.4011 164.598 79.6566 164.466C79.9121 164.326 80.1223 164.137 80.2871 163.898L81.2762 164.689C80.691 165.48 79.842 165.876 78.7293 165.876C78.2677 165.876 77.8432 165.806 77.4558 165.666C77.0684 165.517 76.7305 165.311 76.442 165.047C76.1618 164.784 75.9392 164.462 75.7744 164.083C75.6178 163.696 75.5395 163.259 75.5395 162.772C75.5395 162.294 75.6178 161.862 75.7744 161.474C75.9392 161.079 76.1618 160.745 76.442 160.473C76.7223 160.193 77.052 159.978 77.4311 159.83C77.8185 159.673 78.2347 159.595 78.6798 159.595C79.092 159.595 79.4711 159.665 79.8173 159.805C80.1717 159.937 80.4767 160.139 80.7322 160.411C80.9877 160.675 81.1855 161.009 81.3257 161.412C81.474 161.808 81.5482 162.274 81.5482 162.81ZM93.1604 159.595C93.5478 159.595 93.8775 159.665 94.1495 159.805C94.4297 159.937 94.6564 160.114 94.8295 160.337C95.0108 160.559 95.1427 160.815 95.2251 161.103C95.3075 161.392 95.3487 161.689 95.3487 161.994V165.703H93.8651V162.414C93.8651 162.241 93.8527 162.059 93.828 161.87C93.8033 161.68 93.7497 161.511 93.6673 161.363C93.5849 161.206 93.4695 161.079 93.3211 160.98C93.181 160.881 92.9914 160.831 92.7524 160.831C92.5216 160.831 92.3238 160.881 92.1589 160.98C91.9941 161.079 91.8581 161.206 91.7509 161.363C91.6438 161.52 91.5655 161.697 91.516 161.895C91.4666 162.084 91.4418 162.274 91.4418 162.463V165.703H89.9582V162.117C89.9582 161.746 89.8675 161.441 89.6862 161.202C89.5131 160.955 89.237 160.831 88.8578 160.831C88.6353 160.831 88.4416 160.881 88.2767 160.98C88.1119 161.07 87.9759 161.19 87.8687 161.338C87.7698 161.487 87.6915 161.66 87.6338 161.858C87.5844 162.047 87.5596 162.241 87.5596 162.439V165.703H86.076V159.768H87.4855V160.72H87.5102C87.5761 160.572 87.6627 160.432 87.7698 160.3C87.8852 160.168 88.0171 160.048 88.1655 159.941C88.3221 159.834 88.4993 159.752 88.6971 159.694C88.8949 159.628 89.1133 159.595 89.3524 159.595C89.8139 159.595 90.1972 159.698 90.5022 159.904C90.8072 160.11 91.0421 160.382 91.2069 160.72C91.4047 160.357 91.6685 160.081 91.9982 159.892C92.3279 159.694 92.7153 159.595 93.1604 159.595ZM97.1 159.768H98.5837V165.703H97.1V159.768ZM96.8898 157.753C96.8898 157.514 96.9764 157.308 97.1495 157.135C97.3308 156.953 97.5575 156.863 97.8295 156.863C98.1015 156.863 98.3281 156.949 98.5095 157.122C98.6991 157.287 98.7938 157.497 98.7938 157.753C98.7938 158.008 98.6991 158.223 98.5095 158.396C98.3281 158.561 98.1015 158.643 97.8295 158.643C97.5575 158.643 97.3308 158.556 97.1495 158.383C96.9764 158.202 96.8898 157.992 96.8898 157.753Z" fill="black"/>
<defs>
<clipPath id="clip0">
<rect width="149.574" height="149.574" fill="white" transform="translate(2.09644)"/>
</clipPath>
</defs>
</svg>
