<svg width="150" height="150" viewBox="0 0 150 150" fill="none" xmlns="http://www.w3.org/2000/svg">
<g clip-path="url(#clip0)">
<rect width="149.574" height="149.574" transform="translate(0.0964355)" fill="#FFAFAF"/>
<rect x="57.2808" y="89.6224" width="29.072" height="55.761" fill="#FFF3C8"/>
<path d="M104.106 69.1684C104.106 94.3758 92.1954 117.957 71.9866 117.957C51.7778 117.957 42.307 94.7823 39.0544 71.2013C39.0544 44.7743 51.7778 32.1706 71.9866 32.1706C92.1954 32.1706 104.106 46.7142 104.106 69.1684Z" fill="#FFF3C8"/>
<path d="M113.042 45.7762C129.008 54.8049 102.377 78.7217 90.5299 54.8049C77.8755 75.305 61.9536 68.036 57.2809 54.8049C34.8923 75.7931 23.9195 57.4526 31.3067 47.2059C22.0592 42.8131 19.5438 28.1423 40.1236 28.1423C40.1236 6.45748 69.1956 10.9105 69.1956 18.1339C76.3444 1.45329 110.095 13.5962 102.377 26.4953C123.471 22.9552 127.34 41.7251 113.042 45.7762Z" fill="#190B36"/>
<path fill-rule="evenodd" clip-rule="evenodd" d="M107.026 68.3941C109.742 69.8917 111.277 72.0826 111.277 75.0617C111.277 78.1326 109.646 81.5551 106.832 84.2303C104.031 86.8927 100.129 88.7426 95.7088 88.7426C91.2726 88.7426 86.8785 86.8798 83.5904 84.1845C80.277 81.4684 78.2539 78.0538 78.2539 75.0617C78.2539 72.1864 80.1405 69.969 83.3975 68.42C86.6562 66.8702 91.104 66.0983 95.7088 66.0983C100.316 66.0983 104.265 66.8712 107.026 68.3941ZM107.938 66.7417C104.788 65.0047 100.481 64.2113 95.7088 64.2113C90.9341 64.2113 86.1827 65.0058 82.587 66.7159C79.9709 67.96 77.8703 69.7464 76.9189 72.1278C76.6236 71.8873 76.2989 71.6837 75.9607 71.515C74.9331 71.0022 73.7042 70.7664 72.5242 70.7702C71.3466 70.7739 70.1367 71.0166 69.1556 71.543C68.842 71.7113 68.5437 71.9139 68.277 72.1521C67.3301 69.7589 65.2242 67.9649 62.5995 66.7166C59.0038 65.0065 54.2524 64.212 49.4777 64.212C44.7054 64.212 40.3985 65.0054 37.249 66.7424C34.0535 68.5048 32.0227 71.2673 32.0227 75.0624C32.0227 78.7656 33.9581 82.6553 37.0546 85.5987C40.1646 88.5551 44.5188 90.6303 49.4777 90.6303C54.421 90.6303 59.2262 88.5679 62.7924 85.6446C66.3334 82.742 68.8197 78.8443 68.8197 75.0624C68.8197 74.846 68.8116 74.6333 68.7957 74.4241L69.0259 74.456C69.0922 73.9787 69.4104 73.5478 70.0478 73.2058C70.6929 72.8597 71.5809 72.6602 72.5301 72.6572C73.4769 72.6542 74.4038 72.8471 75.1182 73.2035C75.8078 73.5475 76.2264 74.0015 76.3841 74.5183C76.3727 74.6969 76.3668 74.878 76.3668 75.0617C76.3668 78.8436 78.8531 82.7412 82.3941 85.6439C85.9604 88.5672 90.7655 90.6296 95.7088 90.6296C100.668 90.6296 105.022 88.5544 108.132 85.598C111.228 82.6546 113.164 78.7649 113.164 75.0617C113.164 71.2665 111.133 68.5041 107.938 66.7417ZM38.1603 68.3948C35.4449 69.8924 33.9097 72.0833 33.9097 75.0624C33.9097 78.1333 35.5403 81.5558 38.3547 84.231C41.1554 86.8934 45.057 88.7433 49.4777 88.7433C53.9139 88.7433 58.308 86.8805 61.5961 84.1852C64.9095 81.4691 66.9327 78.0545 66.9327 75.0624C66.9327 72.1871 65.046 69.9697 61.789 68.4207C58.5304 66.8709 54.0826 66.099 49.4777 66.099C44.8704 66.099 40.9215 66.872 38.1603 68.3948Z" fill="#FF2424"/>
<ellipse cx="88.9743" cy="75.1728" rx="2.62125" ry="4.28931" fill="#190B36"/>
<ellipse cx="56.0898" cy="75.1728" rx="2.62125" ry="4.28931" fill="#190B36"/>
<path d="M67.7659 88.0408C67.8274 90.9955 70.0262 91.1386 72.5318 91.1386" stroke="#190B36" stroke-width="1.42977" stroke-linecap="round" stroke-linejoin="round"/>
<path d="M61.6664 64.9418C59.4302 62.1194 56.011 62.8334 52.8958 63.719" stroke="#190B36" stroke-width="1.90636" stroke-linecap="round" stroke-linejoin="round"/>
<path d="M82.908 65.008C86.052 63.0091 90.4286 64.3749 93.8434 65.0819" stroke="#190B36" stroke-width="1.90636" stroke-linecap="round" stroke-linejoin="round"/>
<path d="M66.8127 100.67C69.197 101.601 71.0503 101.624 73.6042 101.624C74.972 101.624 77.7568 101.897 78.4892 100.432" stroke="#190B36" stroke-width="1.90636" stroke-linecap="round" stroke-linejoin="round"/>
<path d="M9.4126 149.144C9.4126 142.183 14.4257 136.234 21.2857 135.054L51.4609 129.861C54.786 129.289 58.2064 129.911 61.117 131.618L63.7037 133.135C67.9136 135.603 73.0915 135.753 77.4377 133.534L82.1141 131.146C84.873 129.737 88.0149 129.262 91.0669 129.793L121.202 135.036C128.05 136.227 133.049 142.171 133.049 149.122V218.342C133.049 226.238 126.648 232.64 118.751 232.64H23.7103C15.8139 232.64 9.4126 226.238 9.4126 218.342V149.144Z" fill="#FF2424"/>
</g>
<defs>
<clipPath id="clip0">
<rect width="149.574" height="149.574" fill="white" transform="translate(0.0964355)"/>
</clipPath>
</defs>
</svg>
