<svg width="1440" height="365" viewBox="0 0 1440 365" fill="none" xmlns="http://www.w3.org/2000/svg">
<rect y="3" width="1440" height="361.983" fill="white"/>
<line x1="181.5" y1="4" x2="181.5" y2="364.569" stroke="#C3B6DE" stroke-width="3"/>
<line x1="361.5" y1="4" x2="361.5" y2="364.569" stroke="#C3B6DE" stroke-width="3"/>
<line x1="541.5" y1="3" x2="541.5" y2="363.569" stroke="#C3B6DE" stroke-width="3"/>
<line x1="631.5" y1="4" x2="631.5" y2="364.569" stroke="#C3B6DE" stroke-width="3"/>
<line x1="811.5" y1="4" x2="811.5" y2="364.569" stroke="#C3B6DE" stroke-width="3"/>
<line x1="991.5" y1="4" x2="991.5" y2="364.569" stroke="#C3B6DE" stroke-width="3"/>
<line x1="1171.5" y1="4" x2="1171.5" y2="364.569" stroke="#C3B6DE" stroke-width="3"/>
<line x1="1351.5" y1="4" x2="1351.5" y2="364.569" stroke="#C3B6DE" stroke-width="3"/>
<line x1="91.5" y1="4" x2="91.5" y2="364.569" stroke="#C3B6DE" stroke-width="3"/>
<line x1="271.5" y1="4" x2="271.5" y2="364.569" stroke="#C3B6DE" stroke-width="3"/>
<line x1="451.5" y1="4" x2="451.5" y2="364.569" stroke="#C3B6DE" stroke-width="3"/>
<line x1="721.5" y1="4" x2="721.5" y2="364.569" stroke="#C3B6DE" stroke-width="3"/>
<line x1="901.5" y1="4" x2="901.5" y2="364.569" stroke="#C3B6DE" stroke-width="3"/>
<line x1="1081.5" y1="4" x2="1081.5" y2="364.569" stroke="#C3B6DE" stroke-width="3"/>
<line x1="1261.5" y1="4" x2="1261.5" y2="364.569" stroke="#C3B6DE" stroke-width="3"/>
<line y1="2.22397" x2="1440" y2="2.22397" stroke="#C3B6DE" stroke-width="3"/>
<line y1="148.5" x2="1440" y2="148.5" stroke="#C3B6DE" stroke-width="3"/>
<line y1="75.5" x2="1440" y2="75.5" stroke="#C3B6DE" stroke-width="3"/>
<line y1="221.5" x2="1440" y2="221.5" stroke="#C3B6DE" stroke-width="3"/>
<line y1="294.5" x2="1440" y2="294.5" stroke="#C3B6DE" stroke-width="3"/>
</svg>
