<svg width="374" height="240" viewBox="0 0 374 240" fill="none" xmlns="http://www.w3.org/2000/svg">
<path d="M23.5049 62.48C25.5292 27.883 54.1758 0.863525 88.832 0.863525H284.8C319.389 0.863525 348.005 27.7822 350.117 62.3069L357.109 176.613H16.8269L23.5049 62.48Z" fill="#C3B6DE"/>
<rect y="138.285" width="373.936" height="63.5691" rx="31.7846" fill="#9D8FBC"/>
<path d="M34.6738 115.768C40.2235 107.583 96.7327 90.7194 106.595 94.3059C114.271 97.0973 121.198 133.074 123.892 148.888C124.626 153.197 122.214 157.365 118.12 158.897C100.952 165.321 57.6615 181.021 53.1621 177.723C47.5353 173.598 29.1241 123.954 34.6738 115.768Z" fill="#ECE8F4"/>
<circle cx="121.062" cy="85.4666" r="3.27194" fill="white"/>
<circle cx="187.435" cy="85.4666" r="3.27194" fill="white"/>
<circle cx="253.809" cy="85.4666" r="3.27194" fill="white"/>
<path d="M42.0676 201.854H58.8947L56.0902 239.248H45.807L42.0676 201.854Z" fill="#3A2860"/>
<path d="M310.367 201.854H327.194L324.389 239.248H314.106L310.367 201.854Z" fill="#3A2860"/>
</svg>
