<svg width="374" height="240" viewBox="0 0 374 240" fill="none" xmlns="http://www.w3.org/2000/svg">
<path d="M23.5049 62.48C25.5292 27.883 54.1758 0.863525 88.832 0.863525H284.8C319.389 0.863525 348.005 27.7822 350.117 62.3069L357.109 176.613H16.8269L23.5049 62.48Z" fill="#C3B6DE"/>
<rect y="138.285" width="373.936" height="63.5691" rx="31.7846" fill="#9D8FBC"/>
<path d="M34.6738 115.768C40.2235 107.583 96.7327 90.7194 106.595 94.3059C114.271 97.0973 121.198 133.074 123.892 148.888C124.626 153.197 122.214 157.365 118.12 158.897C100.952 165.321 57.6615 181.021 53.1621 177.723C47.5353 173.598 29.1241 123.954 34.6738 115.768Z" fill="#ECE8F4"/>
<circle cx="121.062" cy="85.4666" r="3.27194" fill="white"/>
<circle cx="187.435" cy="85.4666" r="3.27194" fill="white"/>
<circle cx="253.809" cy="85.4666" r="3.27194" fill="white"/>
<path d="M42.0676 201.854H58.8947L56.0902 239.248H45.807L42.0676 201.854Z" fill="#3A2860"/>
<path d="M310.367 201.854H327.194L324.389 239.248H314.106L310.367 201.854Z" fill="#3A2860"/>
<path d="M198.689 153.051C198.049 155.386 195.968 156.993 193.55 157.116C189.518 157.322 186.466 153.43 187.443 149.513C189.262 142.222 191.461 131.385 190.965 123.178C190.178 110.16 181.839 91.0529 181.839 91.0529L194.187 90.4241C194.187 90.4241 202.475 109.491 203.272 122.477C203.885 132.48 200.516 146.387 198.689 153.051Z" fill="white"/>
<path d="M172.06 157.806C171.419 160.141 169.338 161.748 166.92 161.872C162.889 162.077 159.837 158.185 160.814 154.269C162.632 146.978 164.832 136.141 164.336 127.934C163.549 114.915 155.21 95.8082 155.21 95.8082L167.557 95.1793C167.557 95.1793 175.845 114.246 176.642 127.233C177.256 137.235 173.887 151.142 172.06 157.806Z" fill="white"/>
<path d="M278.213 84.7176C281.851 71.7984 279.11 55.7131 265.856 53.5968C246.868 50.5647 218.648 60.5786 173.693 65.5181C158.888 67.1449 147.527 79.9825 148.774 94.8248C149.972 109.076 162.35 119.751 176.623 118.841L241.375 114.714C258.697 113.609 273.51 101.425 278.213 84.7176Z" fill="white"/>
<path d="M207.517 88.1432C218.97 83.2885 219.421 60.3119 206.984 60.5265C194.091 60.7489 179.216 62.1006 161.002 65.0698C152.741 66.4164 147.022 73.9778 147.723 82.318L148.024 85.8955C149.325 101.382 166.923 109.91 180.374 102.125C189.345 96.9331 199.064 91.7268 207.517 88.1432Z" fill="#544942"/>
<path d="M286.002 27.1523C285.696 24.6748 283.077 23.2572 281.088 24.4916L265.831 33.9581C263.675 35.2959 263.873 38.692 266.179 39.9408L283.786 49.4737C286.093 50.7225 288.685 48.8368 288.353 46.1516L286.002 27.1523Z" fill="#544942"/>
<path d="M235.861 24.4294C233.898 23.138 231.236 24.4876 230.871 26.9588L228.075 45.8864C227.681 48.5572 230.227 50.5046 232.564 49.3197L250.39 40.2835C252.727 39.0986 253.011 35.7165 250.89 34.3208L235.861 24.4294Z" fill="#544942"/>
<path d="M225.91 56.9781C225.91 73.701 240.651 79.7914 258.679 79.7914C276.707 79.7914 290.438 73.701 290.438 56.9781C290.438 40.2551 276.582 32.0907 258.554 32.0907C240.525 32.0907 225.91 40.2551 225.91 56.9781Z" fill="white"/>
<path d="M225.91 56.9781C225.91 73.701 245.773 54.0745 258.553 41.6308C266.512 51.171 290.438 73.701 290.438 56.9781C290.438 40.2551 276.582 32.0907 258.554 32.0907C240.525 32.0907 225.91 40.2551 225.91 56.9781Z" fill="#544942"/>
<line x1="0.414789" y1="-0.414789" x2="12.009" y2="-0.414789" transform="matrix(-0.975014 -0.222145 -0.236123 0.971723 232.545 60.5675)" stroke="#190B36" stroke-width="0.829578" stroke-linecap="round" stroke-linejoin="round"/>
<line x1="0.414789" y1="-0.414789" x2="12.0295" y2="-0.414789" transform="matrix(-0.99975 -0.0223387 -0.0238238 0.999716 232.545 64.2953)" stroke="#190B36" stroke-width="0.829578" stroke-linecap="round" stroke-linejoin="round"/>
<line x1="0.414789" y1="-0.414789" x2="12.0145" y2="-0.414789" transform="matrix(-0.98177 0.190075 0.202217 0.979341 232.545 67.7451)" stroke="#190B36" stroke-width="0.829578" stroke-linecap="round" stroke-linejoin="round"/>
<line x1="0.414789" y1="-0.414789" x2="12.009" y2="-0.414789" transform="matrix(0.975014 -0.222145 0.236123 0.971723 283.981 60.5675)" stroke="#190B36" stroke-width="0.829578" stroke-linecap="round" stroke-linejoin="round"/>
<line x1="0.414789" y1="-0.414789" x2="12.0295" y2="-0.414789" transform="matrix(0.99975 -0.0223387 0.0238238 0.999716 283.981 64.2953)" stroke="#190B36" stroke-width="0.829578" stroke-linecap="round" stroke-linejoin="round"/>
<line x1="0.414789" y1="-0.414789" x2="12.0145" y2="-0.414789" transform="matrix(0.98177 0.190075 -0.202217 0.979341 283.981 67.7451)" stroke="#190B36" stroke-width="0.829578" stroke-linecap="round" stroke-linejoin="round"/>
<path d="M232.28 52.7053C232.279 52.705 232.279 52.7047 232.279 52.7044C232.412 52.6075 232.586 52.4835 232.8 52.3402C233.335 51.9799 234.113 51.4983 235.073 51.0167C236.998 50.0514 239.638 49.097 242.539 49.097C245.311 49.097 247.579 51.2234 249.194 53.486C249.992 54.6035 250.609 55.7237 251.026 56.566C251.235 56.9866 251.393 57.3365 251.499 57.5804C251.508 57.6027 251.517 57.6241 251.526 57.6446C251.438 57.6979 251.328 57.7616 251.198 57.8331C250.789 58.0582 250.179 58.3609 249.384 58.6645C247.794 59.2716 245.469 59.8816 242.539 59.8816C239.72 59.8816 237.117 58.0599 235.178 56.1569C234.217 55.2137 233.437 54.2691 232.898 53.5597C232.629 53.2054 232.421 52.9106 232.28 52.7053Z" fill="#80DFA6" stroke="#190B36" stroke-width="0.829578"/>
<path d="M242.842 48.6823C242.842 48.6823 246.778 50.7751 246.647 54.4893C246.517 58.2036 242.842 60.2964 242.842 60.2964C242.842 60.2964 238.354 57.9736 238.354 54.4893C238.355 50.2285 242.842 48.6823 242.842 48.6823Z" fill="#190B36"/>
<path d="M284.664 52.7053C284.664 52.705 284.664 52.7047 284.664 52.7044C284.532 52.6075 284.357 52.4835 284.144 52.3402C283.608 51.9799 282.831 51.4984 281.87 51.0167C279.945 50.0514 277.305 49.0971 274.404 49.0971C271.632 49.0971 269.365 51.2234 267.749 53.486C266.951 54.6035 266.335 55.7238 265.917 56.566C265.709 56.9866 265.55 57.3366 265.445 57.5805C265.435 57.6027 265.426 57.6241 265.417 57.6446C265.506 57.6979 265.615 57.7616 265.745 57.8331C266.155 58.0582 266.765 58.3609 267.56 58.6645C269.149 59.2716 271.475 59.8816 274.404 59.8816C277.223 59.8816 279.826 58.06 281.766 56.157C282.727 55.2138 283.506 54.2691 284.045 53.5597C284.314 53.2054 284.523 52.9106 284.664 52.7053Z" fill="#80DFA6" stroke="#190B36" stroke-width="0.829578"/>
<path d="M274.101 48.6823C274.101 48.6823 270.166 50.7751 270.297 54.4894C270.427 58.2036 274.101 60.2964 274.101 60.2964C274.101 60.2964 278.589 57.9736 278.589 54.4894C278.589 50.2285 274.101 48.6823 274.101 48.6823Z" fill="#190B36"/>
<path d="M257.654 67.1029C257.983 67.4585 258.545 67.4585 258.873 67.1029L259.851 66.0441C260.342 65.5128 259.965 64.6516 259.242 64.6516H257.286C256.562 64.6516 256.186 65.5128 256.676 66.0441L257.654 67.1029Z" fill="#FF7272"/>
<path d="M252.457 71.6323C256.028 72.7932 258.26 67.7626 258.26 67.7626C258.26 67.7626 260.715 73.1802 264.071 71.6323" stroke="#190B36" stroke-width="0.829578" stroke-linecap="round" stroke-linejoin="round"/>
<path d="M108.159 29.3041C107.307 27.0378 108.048 24.5152 109.933 22.9958C113.077 20.4627 117.832 21.8213 119.34 25.5656C122.149 32.5354 126.73 42.5999 131.95 48.9524C140.23 59.0291 158.198 69.6012 158.198 69.6012L148.571 77.3593C148.571 77.3593 130.668 66.7895 122.399 56.7446C116.03 49.0079 110.592 35.7714 108.159 29.3041Z" fill="#544942"/>
<path d="M275.724 144.492C275.084 146.827 273.003 148.434 270.584 148.557C266.553 148.762 263.501 144.871 264.478 140.954C266.296 133.663 268.496 122.826 268 114.619C267.213 101.6 258.874 82.4935 258.874 82.4935L271.222 81.8646C271.222 81.8646 279.51 100.932 280.307 113.918C280.92 123.92 277.551 137.828 275.724 144.492Z" fill="white"/>
<path d="M249.095 149.247C248.455 151.582 246.374 153.189 243.955 153.312C239.924 153.517 236.872 149.626 237.849 145.709C239.667 138.418 241.867 127.581 241.371 119.374C240.584 106.356 232.245 87.2487 232.245 87.2487L244.593 86.6199C244.593 86.6199 252.881 105.687 253.677 118.673C254.291 128.676 250.922 142.583 249.095 149.247Z" fill="white"/>
</svg>
