<svg width="163" height="313" viewBox="0 0 163 313" fill="none" xmlns="http://www.w3.org/2000/svg">
<path fill-rule="evenodd" clip-rule="evenodd" d="M162.039 61.2765H0L8.30969 312.229L18.2812 312.229L22.436 106.149H139.603L143.757 312.229L154.56 312.229L162.039 61.2765Z" fill="#63518A"/>
<path d="M52.9805 42.5083C54.0839 37.572 58.4648 34.0623 63.5229 34.0623H95.1175C100.041 34.0623 104.342 37.3916 105.575 42.1581L111.866 66.4639C113.637 73.3034 108.473 79.9733 101.408 79.9733H58.0898C51.1734 79.9733 46.0386 73.5641 47.5474 66.8142L52.9805 42.5083Z" fill="#FA4444"/>
<circle cx="70.5322" cy="42.7044" r="2.70065" fill="white"/>
<circle cx="80.2548" cy="42.7044" r="2.70065" fill="white"/>
<circle cx="89.9773" cy="42.7044" r="2.70065" fill="white"/>
<circle cx="70.5322" cy="50.8063" r="2.70065" fill="white"/>
<circle cx="80.2548" cy="50.8063" r="2.70065" fill="white"/>
<circle cx="89.9773" cy="50.8063" r="2.70065" fill="white"/>
<circle cx="70.5322" cy="58.9083" r="2.70065" fill="white"/>
<circle cx="80.2548" cy="58.9083" r="2.70065" fill="white"/>
<circle cx="89.9773" cy="58.9083" r="2.70065" fill="white"/>
<path d="M118.334 38.6534C119.848 38.6534 122.224 38.5658 123.405 39.7936C124.78 41.2236 125.502 42.8421 126.061 44.7748C126.922 47.7559 128.885 51.8853 127.636 55.0973C126.909 56.9672 125.302 57.4295 123.525 57.768C120.931 58.262 116.069 57.5198 116.458 54.0171C116.68 52.0184 118.962 50.4291 120.779 49.8611C122.38 49.361 124.608 49.6807 126.286 49.726C128.049 49.7737 130.095 51.8461 130.907 53.2969C132.037 55.3171 131.837 57.4604 131.837 59.6884C131.837 62.0949 129.044 65.1575 126.856 65.9299C121.914 67.6743 117.123 68.0904 111.852 68.0904" stroke="#FA4444" stroke-width="2.16052" stroke-linecap="round" stroke-linejoin="round" stroke-dasharray="4.86 4.86"/>
<path d="M42.7885 44.3248C37.0952 44.3248 33.6954 37.9839 36.8461 33.2419L42.0675 25.3834C44.0696 22.3701 47.4472 20.559 51.0651 20.559H108.991C112.78 20.559 116.291 22.5437 118.246 25.7892L122.639 33.086C125.615 38.0275 122.056 44.3248 116.288 44.3248C113.076 44.3248 110.23 42.2572 109.237 39.2031L108.681 37.4955C107.357 33.4232 103.562 30.6663 99.2798 30.6663H60.6585C56.5284 30.6663 52.7597 33.0212 50.9492 36.7334L49.201 40.3178C48.0053 42.7694 45.5163 44.3248 42.7885 44.3248Z" fill="#FA4444"/>
</svg>
